<svg width="94" height="72" viewBox="0 0 94 72" fill="none" xmlns="http://www.w3.org/2000/svg">
<path d="M51.008 6.526C50.664 5.44 49.223 3.64 47.806 2.526C41.614 -2.345 30.535 2.526 30.535 9.75C30.535 11.5 31 11.5 44.122 11.5C56.118 11.5 56.5 11.5 56.5 10C55.815 9.175 55.5 8.5 53.445 8.5C51.752 8.5 51.353 7.612 51.008 6.526Z" fill="white"/>
<path d="M47.765 21.506C50.317 19.499 51.752 14.6 51.752 13.085C51.752 12.5 51.752 12.5 40.833 12.5C30.535 12.5 30.5 12.602 30.5 14.6C30.5 15.755 32.03 18.23 33.9 20.1C37.992 24.192 43.624 24.763 47.765 21.506Z" fill="white"/>
<path d="M64.331 41.5C61.725 35.725 58.705 29.987 57.622 28.75C55.776 26.642 54.863 26.5 43.186 26.5C32.782 26.5 30.363 26.791 28.55 28.259C26.778 29.694 25.75 33.238 22.968 47.509C21.093 57.129 19.545 65.997 19.529 67.215C19.483 70.691 22.481 71.5 35.411 71.5C50.008 71.5 49.688 71.799 51.458 56.5C52.126 50.725 52.823 45.848 53.008 45.661C53.193 45.475 55.478 49.022 58.085 53.543L63.5 61.092H71.913C81.672 61.092 81.054 60.359 84.154 56.711L87 52H78.5H69.07L64.331 41.5Z" fill="white"/>
<path d="M14.009 32.458C19.963 32.494 21.207 32.199 22.268 30.5C23.491 28.542 23.271 28.501 11.758 28.542L0 28.584L3.5 30.5C5.977 31.856 9.049 32.428 14.009 32.458Z" fill="white"/>
<path d="M19.845 40.671C20.755 39.665 21.5 38.54 21.5 38.171C21.5 37.802 17 37.5 11.5 37.5C6 37.5 1.503 37.838 1.506 38.25C1.51 38.662 2.896 39.787 4.587 40.75C8.83 43.165 17.629 43.12 19.845 40.671Z" fill="white"/>
<path d="M11.75 51.5C16.657 51.5 19.5 50.326 19.5 48.3C19.5 47.86 15.225 47.5 10 47.5C4.775 47.5 0.5 47.713 0.5 47.974C0.5 49.422 7.13 51.5 11.75 51.5Z" fill="white"/>
<path fill-rule="evenodd" clip-rule="evenodd" d="M93.5 26.107V38.107V49.5H82H70.5V38.083V26.107H93.5ZM77.6422 35.0469C77.491 34.8247 77.5 34.4935 77.5 34C77.5 32.5 77.583 32.5 82.083 32.5C84.6373 32.5 85.4874 32.5 85.7703 32.9006C85.9114 33.1003 85.9114 33.3998 85.9114 33.8486C85.9114 35.5 85.8284 35.5 82 35.5C78.9248 35.5 77.9505 35.5 77.6422 35.0469Z" fill="white"/>
</svg>
